{
    "asset": {
        "version": "2.0",
        "generator": "Open Asset Import Library (assimp v5.0.5eb040c7)"
    },
    "accessors": [
        {
            "bufferView": 0,
            "byteOffset": 0,
            "componentType": 5126,
            "count": 12499,
            "type": "VEC3",
            "max": [
                1.8596959114074708,
                1.6290290355682374,
                0.7037580013275147
            ],
            "min": [
                -1.495015025138855,
                -0.0014459999511018396,
                -0.7240359783172607
            ]
        },
        {
            "bufferView": 1,
            "byteOffset": 0,
            "componentType": 5126,
            "count": 12499,
            "type": "VEC3",
            "max": [
                0.9996708035469055,
                0.9997145533561707,
                0.9999860525131226
            ],
            "min": [
                -0.9998661875724793,
                -0.9999518394470215,
                -0.9999452829360962
            ]
        },
        {
            "bufferView": 2,
            "byteOffset": 0,
            "componentType": 5126,
            "count": 12499,
            "type": "VEC2",
            "max": [
                0.875,
                1.0
            ],
            "min": [
                0.125,
                0.0
            ]
        },
        {
            "bufferView": 3,
            "byteOffset": 0,
            "componentType": 5125,
            "count": 72384,
            "type": "SCALAR",
            "max": [
                12498
            ],
            "min": [
                0
            ]
        }
    ],
    "buffers": [
        {
            "byteLength": 689504,
            "uri": "result.bin"
        }
    ],
    "bufferViews": [
        {
            "buffer": 0,
            "byteOffset": 0,
            "byteLength": 149988,
            "target": 34962
        },
        {
            "buffer": 0,
            "byteOffset": 149988,
            "byteLength": 149988,
            "target": 34962
        },
        {
            "buffer": 0,
            "byteOffset": 299976,
            "byteLength": 99992,
            "target": 34962
        },
        {
            "buffer": 0,
            "byteOffset": 399968,
            "byteLength": 289536,
            "target": 34963
        }
    ],
    "materials": [
        {
            "name": "DefaultMaterial",
            "pbrMetallicRoughness": {
                "baseColorFactor": [
                    0.6000000238418579,
                    0.6000000238418579,
                    0.6000000238418579,
                    1.0
                ],
                "metallicFactor": 0.0
            }
        },
        {
            "name": "Material",
            "pbrMetallicRoughness": {
                "baseColorFactor": [
                    0.6000000238418579,
                    0.6000000238418579,
                    0.6000000238418579,
                    1.0
                ],
                "metallicFactor": 0.0
            }
        }
    ],
    "meshes": [
        {
            "name": "Whale_Cube.001",
            "primitives": [
                {
                    "mode": 4,
                    "material": 1,
                    "indices": 3,
                    "attributes": {
                        "POSITION": 0,
                        "NORMAL": 1,
                        "TEXCOORD_0": 2
                    }
                }
            ]
        }
    ],
    "nodes": [
        {
            "name": "input.obj",
            "children": [
                1
            ]
        },
        {
            "name": "Whale_Cube.001",
            "mesh": 0
        }
    ],
    "scenes": [
        {
            "nodes": [
                0
            ]
        }
    ],
    "scene": 0
}